<svg xmlns="http://www.w3.org/2000/svg" width="52.329" height="52.329" viewBox="0 0 52.329 52.329"><path d="M4.376,34.76v6.752A1.69,1.69,0,0,0,6.064,43.2H7.752A1.69,1.69,0,0,0,9.44,41.512V34.76a1.69,1.69,0,0,0-1.688-1.688H6.064A1.69,1.69,0,0,0,4.376,34.76Zm1.688,0H7.752v6.752H6.064Zm43.889,0H48.265V33.072h1.688Zm0,8.44H48.265V36.448h1.688ZM12.816,49.953H44.889a1.69,1.69,0,0,0,1.688-1.688V28.008a1.69,1.69,0,0,0-1.688-1.688H12.816a1.69,1.69,0,0,0-1.688,1.688V48.265A1.69,1.69,0,0,0,12.816,49.953Zm0-21.944H44.889V48.265H12.816ZM32.7,29.785a15.212,15.212,0,0,1-6.773,1.6h-1.29a4.22,4.22,0,0,0-.844,8.355v4.8a2.04,2.04,0,0,0,2.037,2.037H28.5A2.037,2.037,0,0,0,29.944,43.1l-.989-.989a.352.352,0,0,1-.1-.247V40.119a15.17,15.17,0,0,1,3.843,1.3l.178.089h4.419V29.7H32.873ZM22.1,35.6a2.535,2.535,0,0,1,2.532-2.532h1.29a16.917,16.917,0,0,0,6.306-1.231v7.527a16.917,16.917,0,0,0-6.306-1.231h-1.29A2.535,2.535,0,0,1,22.1,35.6Zm5.661,7.7.989.989a.35.35,0,0,1-.247.6H25.826a.35.35,0,0,1-.349-.349V39.824h.446c.414,0,.829.024,1.242.058v1.979a2.024,2.024,0,0,0,.6,1.441ZM35.6,39.824H33.916v-8.44H35.6ZM45.733,12.816v-.844a.845.845,0,0,0-.844-.844H43.2A2.535,2.535,0,0,1,40.668,8.6V6.064H43.2V4.376h1.688V6.064A2.535,2.535,0,0,1,47.421,8.6H45.733a.845.845,0,0,0-.844-.844H42.356V8.6a.845.845,0,0,0,.844.844h1.688a2.535,2.535,0,0,1,2.532,2.532V14.5H44.889v1.688H43.2V14.5a2.535,2.535,0,0,1-2.532-2.532h1.688a.845.845,0,0,0,.844.844ZM31.384,11.128H34.8a9.284,9.284,0,1,0,0-1.688H31.384a2.535,2.535,0,0,0-2.532,2.532V22.944H25.476V22.1a2.535,2.535,0,0,0-2.532-2.532H13.66a.845.845,0,0,1-.844-.844V17.88h6.752V15.348a7.6,7.6,0,0,0-4.746-7.037,4.22,4.22,0,1,0-5.7,0,7.6,7.6,0,0,0-4.746,7.037V17.88h6.752v.844a2.535,2.535,0,0,0,2.532,2.532h9.284a.845.845,0,0,1,.844.844v.844H5.22A4.225,4.225,0,0,0,1,27.164V49.109a4.225,4.225,0,0,0,4.22,4.22H49.109a4.225,4.225,0,0,0,4.22-4.22V27.164a4.225,4.225,0,0,0-4.22-4.22H30.54V11.972A.845.845,0,0,1,31.384,11.128Zm12.66-8.44a7.6,7.6,0,1,1-7.6,7.6A7.605,7.605,0,0,1,44.045,2.688ZM9.44,5.22a2.532,2.532,0,1,1,2.532,2.532A2.535,2.535,0,0,1,9.44,5.22ZM6.064,15.348a5.908,5.908,0,0,1,11.816,0v.844H6.064ZM51.641,27.164V49.109a2.535,2.535,0,0,1-2.532,2.532H5.22a2.535,2.535,0,0,1-2.532-2.532V27.164A2.535,2.535,0,0,1,5.22,24.632H49.109A2.535,2.535,0,0,1,51.641,27.164ZM14.5,36.448h1.688v1.688H14.5Zm0-3.376h1.688V34.76H14.5Zm0-3.376h1.688v1.688H14.5ZM41.512,41.512H43.2V43.2H41.512Zm0-3.376H43.2v1.688H41.512Zm0,6.752H43.2v1.688H41.512Z" transform="translate(-1 -1)" fill="#8ea4af"></path></svg>