<svg xmlns="http://www.w3.org/2000/svg" width="47.176" height="47.176" viewBox="0 0 47.176 47.176"><path d="M37.748,24.969l-1.316-.762,3.975-6.866,1.316.762Zm-1.762,3.044.88-1.52-1.316-.762-.88,1.52ZM12.413,8.609a3.8,3.8,0,1,1-3.8-3.8A3.809,3.809,0,0,1,12.413,8.609Zm-1.522,0a2.283,2.283,0,1,0-2.283,2.283A2.285,2.285,0,0,0,10.892,8.609Zm28.153,2.283v.761h7.609a1.523,1.523,0,0,1,1.522,1.522V14.7a1.523,1.523,0,0,1-1.522,1.522h-.323L45.45,17.74h.443a2.285,2.285,0,0,1,2.283,2.283V45.893a2.285,2.285,0,0,1-2.283,2.283H3.283A2.285,2.285,0,0,1,1,45.893V20.022A2.285,2.285,0,0,1,3.283,17.74H25.031l-.881-1.522h-.323A1.523,1.523,0,0,1,22.305,14.7V13.174a1.523,1.523,0,0,1,1.522-1.522h7.609V10.131a.762.762,0,0,0-.761-.761H16.218v1.306l-1.23.419c-.035.089-.072.177-.111.266l.574,1.167-2.922,2.923-1.168-.574c-.088.04-.177.077-.266.111l-.419,1.23H6.542l-.419-1.23c-.089-.035-.177-.072-.266-.111l-1.168.574L1.767,12.528l.574-1.167c-.04-.088-.077-.177-.111-.266L1,10.676V6.542l1.23-.419c.035-.088.072-.177.112-.266L1.768,4.69,4.69,1.768l1.168.574c.088-.04.177-.077.266-.112L6.542,1h4.133l.419,1.23c.089.035.177.072.266.111l1.168-.574L15.451,4.69l-.574,1.167c.04.088.077.177.111.266l1.23.419V7.848H30.675a2.285,2.285,0,0,1,2.283,2.283v1.522H34.48V5.425a2.283,2.283,0,1,1,1.522,0v6.227h1.522v-.761a2.285,2.285,0,0,1,2.283-2.283h4.565a.762.762,0,0,0,.761-.761v-.9a2.283,2.283,0,1,1,1.522,0v.9a2.285,2.285,0,0,1-2.283,2.283H39.806a.762.762,0,0,0-.761.761ZM45.132,4.8a.761.761,0,1,0,.761-.761A.762.762,0,0,0,45.132,4.8ZM34.48,3.283a.761.761,0,1,0,.761-.761A.762.762,0,0,0,34.48,3.283ZM14.7,7.632l-.905-.308-.118-.362a5.356,5.356,0,0,0-.319-.765l-.173-.339.425-.862L12.223,3.613l-.862.425-.34-.173a5.359,5.359,0,0,0-.764-.32l-.363-.117-.308-.905H7.632l-.308.905-.362.118a5.273,5.273,0,0,0-.764.32l-.34.173L5,3.614,3.614,5l.425.862L3.865,6.2a5.311,5.311,0,0,0-.319.765l-.119.362-.905.308V9.586l.905.308.118.362a5.356,5.356,0,0,0,.319.765l.173.339-.425.862,1.382,1.382.862-.425.34.173a5.359,5.359,0,0,0,.764.32l.362.118.309.9H9.586l.308-.905.362-.118a5.273,5.273,0,0,0,.764-.32l.34-.173.862.425L13.6,12.223l-.425-.862.173-.339a5.32,5.32,0,0,0,.319-.765l.118-.362.906-.307ZM2.522,20.022v3.8H28.554l-2.643-4.565H3.283a.762.762,0,0,0-.761.761ZM46.654,45.893V25.349H41.045l-2.761,4.77v4.116L33.865,36H32.2V30.119l-2.761-4.77H2.522V45.893a.762.762,0,0,0,.761.761h42.61A.762.762,0,0,0,46.654,45.893ZM33.719,30.675v3.746L36.762,33.2V30.675ZM44.57,19.262l-2.643,4.565h4.727v-3.8a.762.762,0,0,0-.761-.761Zm0-3.044H25.907L33.4,29.153h3.688Zm2.08-3.044H23.827V14.7H46.655ZM5.565,20.783H4.044v1.522H5.565Zm3.044,0H7.087v1.522H8.609Zm3.044,0H10.131v1.522h1.522ZM4.044,26.871H25.349V39.045H4.044ZM5.565,37.523H23.827V28.392H5.565ZM4.044,40.567h6.087v4.565H4.044ZM5.565,43.61H8.609V42.089H5.565Zm6.087-3.044H17.74v4.565H11.653Zm1.522,3.044h3.044V42.089H13.174Zm6.087-3.044h6.087v4.565H19.262Zm1.522,3.044h3.044V42.089H20.783Zm7.609-6.087H26.871v1.522h1.522Zm1.522,1.522H45.132V37.523H29.914Zm-3.044,3.044H45.132V40.567H26.871Zm0,3.044H45.132V43.61H26.871Z" transform="translate(-1 -1)" fill="#8ea4af"></path></svg>