<svg xmlns="http://www.w3.org/2000/svg" width="50.296" height="50.296" viewBox="0 0 50.296 50.296"><path d="M48.863,1H13.168a2.437,2.437,0,0,0-2.434,2.434V17.291A6.49,6.49,0,0,0,7.49,22.9a9.694,9.694,0,0,0,3.289,7.276,7.31,7.31,0,0,0,4.012,5.745v1.751L9.13,39.007A10.5,10.5,0,0,0,1,49.272V51.3H35.072V49.272a10.5,10.5,0,0,0-5.626-9.332H39.939v7.3a4.056,4.056,0,0,0,8.112,0v-7.3h.811A2.437,2.437,0,0,0,51.3,37.505V3.434A2.437,2.437,0,0,0,48.863,1ZM13.168,2.622H48.863a.813.813,0,0,1,.811.811V7.49H12.357V3.434A.813.813,0,0,1,13.168,2.622ZM9.112,22.9a4.872,4.872,0,0,1,4.867-4.867h2.875a6.517,6.517,0,0,0,4.055-1.422l1.778-1.423a7.13,7.13,0,0,1,1.027,2.845c0,1.21-1.393,2.434-4.056,2.434v1.622c3.174,0,4.941-1.391,5.49-2.962A4.886,4.886,0,0,1,26.959,22.9a8.078,8.078,0,0,1-1.622,4.857V25.755a2.853,2.853,0,0,0-3.912-2.648,9.086,9.086,0,0,1-6.78,0,2.852,2.852,0,0,0-3.91,2.649v2.005A8.082,8.082,0,0,1,9.112,22.9Zm3.245,6.49V25.756a1.231,1.231,0,0,1,1.687-1.142,10.7,10.7,0,0,0,7.985,0,1.23,1.23,0,0,1,1.686,1.142v3.638a5.679,5.679,0,0,1-11.357,0Zm8.5,9.849.305.071-.5,4.537-1.6-1.6Zm-2.825-2.548a7.277,7.277,0,0,0,1.622-.188v1.586l-1.622,2.7-1.622-2.7V36.506A7.277,7.277,0,0,0,18.036,36.694Zm-2.825,2.548,1.8,3.006-1.6,1.6-.5-4.537ZM33.449,49.272v.4H28.582V46.429H26.959v3.245H9.112V46.429H7.49v3.245H2.622v-.4A8.889,8.889,0,0,1,9.5,40.585l3.814-.9.855,7.7,3.866-3.865L21.9,47.385l.855-7.7,3.814.9A8.891,8.891,0,0,1,33.449,49.272ZM46.429,30.2v12.98H44.807V30.2Zm-4.163-1.622L44,25.988l1.73,2.594Zm-.7,1.622h1.622v12.98H41.562ZM44,49.674a2.437,2.437,0,0,1-2.434-2.434V44.807h4.867V47.24A2.437,2.437,0,0,1,44,49.674Zm4.867-11.357h-.811V29.147L44,23.063l-4.056,6.084v9.169H24.011l-2.731-.642V35.924a7.312,7.312,0,0,0,4.012-5.745A9.691,9.691,0,0,0,28.582,22.9a6.512,6.512,0,0,0-3.33-5.65,12.214,12.214,0,0,0-1.674-3.723l-.491-.737L19.9,15.347a4.889,4.889,0,0,1-3.041,1.066H13.98a6.451,6.451,0,0,0-1.622.213V9.112H49.674V37.505a.813.813,0,0,1-.811.811ZM17.225,46.429h1.622v1.622H17.225ZM15.6,5.867H13.98V4.245H15.6Zm3.245,0H17.225V4.245h1.622Zm3.245,0H20.47V4.245h1.622Zm-4.867,4.867h1.622v1.622H17.225Zm3.245,0h1.622v1.622H20.47Zm-6.49,0H15.6v1.622H13.98ZM30.2,22.092H48.051V10.735H30.2Zm1.622-9.735h14.6V20.47h-14.6Zm1.622,1.622H44.807V15.6H33.449Zm0,3.245H44.807v1.622H33.449ZM30.2,23.714h8.112v1.622H30.2Zm0,3.245h8.112v1.622H30.2ZM26.959,30.2H38.317v1.622H26.959Zm0,3.245h8.112v1.622H26.959Zm9.735,0h1.622v1.622H36.694Z" transform="translate(-1 -1)" fill="#8ea4af"></path></svg>