<svg xmlns="http://www.w3.org/2000/svg" width="50.402" height="50.402" viewBox="0 0 50.402 50.402"><path d="M48.964,1H8.316A2.442,2.442,0,0,0,5.878,3.439v12.67L5.4,15.633H5.065A4.069,4.069,0,0,0,1,19.7v.337l4.209,4.209a4.7,4.7,0,0,0,.645,3.766,2.533,2.533,0,0,0-.86,4.148l7.933,7.933a2.534,2.534,0,0,0,4.11-.767l7.112,7.112,5.735,1.639,4.16,3.327h.285a2.442,2.442,0,0,0,2.439-2.439v-.285l-3.328-4.161L31.8,38.782l-.386-.387H48.964A2.442,2.442,0,0,0,51.4,35.956V3.439A2.442,2.442,0,0,0,48.964,1ZM8.316,2.626H48.964a.814.814,0,0,1,.813.813V7.5H7.5V3.439A.814.814,0,0,1,8.316,2.626ZM2.646,19.381a2.445,2.445,0,0,1,2.1-2.1l3.285,3.285a4.689,4.689,0,0,0-.628.521l-.953.953a4.77,4.77,0,0,0-.523.627ZM24.575,44.562l-1.289-1.289,5.354-5.354,1.289,1.289Zm-2.439-2.439-5.62-5.62h0L8.583,28.57,7.6,27.589a3.113,3.113,0,0,1,0-4.4l.953-.953a3.113,3.113,0,0,1,4.4,0L27.49,36.769Zm-7.415-2.915a.921.921,0,0,1-.645-.267L6.144,31.009a.912.912,0,0,1,.645-1.556.921.921,0,0,1,.645.267l7.933,7.933a.912.912,0,0,1-.645,1.556Zm17.916,6.908,2.47,3.088a.816.816,0,0,1-.537.537l-3.088-2.471Zm-2.608.309-3.9-1.115,4.55-4.55,1.115,3.9Zm18.934-9.655H29.789L14.105,21.085a4.683,4.683,0,0,0-4.492-1.241L7.5,17.735V9.129H49.776V35.956A.814.814,0,0,1,48.964,36.769ZM14.007,5.878H12.381V4.252h1.626Zm-3.252,0H9.129V4.252h1.626Zm6.5,0H15.633V4.252h1.626Zm8.129,21.136H48.151V10.755H25.388Zm1.626-1.626V23.762H32.13a6.083,6.083,0,0,0,4.331-1.795L38.227,20.2a4.5,4.5,0,0,1,5.993-.332l2.3,1.844v3.674ZM46.525,12.381v7.251L45.236,18.6a6.144,6.144,0,0,0-3.827-1.342,6.083,6.083,0,0,0-4.331,1.795l-1.766,1.765a4.473,4.473,0,0,1-3.182,1.318H27.014V12.381Zm-15.446,6.5a2.439,2.439,0,1,0-2.439-2.439A2.442,2.442,0,0,0,31.079,18.885Zm0-3.252a.813.813,0,1,1-.813.813A.814.814,0,0,1,31.079,15.633ZM10.755,12.381H9.129V10.755h1.626Zm1.626-1.626H23.762v1.626H12.381ZM9.129,14.007H23.762v1.626H9.129Zm0,3.252H23.762v1.626H9.129ZM30.266,28.64H48.151v1.626H30.266Zm16.259,3.252h1.626v1.626H46.525Zm-16.259,0H44.9v1.626H30.266Z" transform="translate(-1 -1)" fill="#8ea4af"></path></svg>