<svg xmlns="http://www.w3.org/2000/svg" width="68.747" height="30.499" viewBox="0 0 68.747 30.499"><path d="M34.375-22.537l-10,.666L20.969-13.02l-1.461-8.529-3.255.215L18.809-8.68l3.427-.215,5.081-12.4L25.953-9.131l6.95-.44.322-2.8-3.7.236.247-2.159,3.7-.236.344-3.029-3.706.247.215-1.944,3.706-.247ZM11.473-8.218l3.04-.193,1.386-12.9-3.051.2ZM-16.973-6.435l13.557-.827.859-1.751,4.232-.269.462,1.676L8.368-8,9.41-17.875l2.61-.172.322-3.008-8.057.526-.312,3,2.4-.15-.956,9.2L1.966-20.367-.591-20.2-6.5-7.605l.226-2.234-3.9.247.2-2.138,3.91-.247.29-3-3.91.247L-9.5-16.65l3.91-.258.29-3-6.961.451-.279,2.857c-.408-2.148-2.406-2.686-4.565-2.546l-4.179.269-.3,3.309a5.261,5.261,0,0,0-5.511-3.094,7.808,7.808,0,0,0-7.251,7.025,5.486,5.486,0,0,0,6.059,6.252,8,8,0,0,0,6.112-3.846l-.29,3.126,3.029-.183.376-4.018Zm-4.759-7.541-.29,3.2-2.9.183a4.171,4.171,0,0,1-3.1,2.03c-2.3.14-3.233-1.633-3.083-3.352a4.077,4.077,0,0,1,3.717-3.577,2.684,2.684,0,0,1,2.825,1.7Zm6.026-.827c-.14,1.5-1.568,1.633-3.094,1.729l.29-3.062C-16.522-16.264-15.576-16.188-15.705-14.8ZM-13.438-7.2l-2.374-3.588a4.878,4.878,0,0,0,3-2.857ZM1.106-12.031l-2.546.161,1.7-4.222Zm-18.272-8.014,6.1-.4.677-7.111,4.039,6.8,2.686-.172.43-4.329c1.053,3.1,3.137,4.393,5.951,4.211a7.64,7.64,0,0,0,6.4-4.082l-.355,3.384,3.051-.2.43-4.114,2.063,3.953,3.91-.258-2.707-4.168a5.171,5.171,0,0,0,3.437-5.328l1.7,4.619-.516,4.759,3.051-.2.516-4.759,4.684-8.422-3.33.236L22.58-30.723l-1.386-4.641-3.459.236.473,1.278c-.913-1.01-2.535-1.139-3.9-1.042l-4.222.29-.355,3.437A5.6,5.6,0,0,0,4-34.418c-4.372.3-6.037,3.652-6.832,5.1l.43-4.426-3.062.2-.7,7.154-4.061-6.832-2.9.193L-14.19-21.774l-3.3-10.957-2.567.172-6.123,13.095,3.427-.226.87-1.955,4.254-.279Zm29.713-8.819.312-3.094a4.884,4.884,0,0,1,2.46.215c.3.172.43.548.365,1.117a1.545,1.545,0,0,1-.816,1.3A6.338,6.338,0,0,1,12.547-28.864ZM.827-25.137a2.932,2.932,0,0,1-.773-2.5,3.721,3.721,0,0,1,1.386-2.621A4.013,4.013,0,0,1,3.8-31.249a2.846,2.846,0,0,1,1.31.269,5.147,5.147,0,0,1,1.192.87l3.352-.226-.129,1.289-6.778.462-.258,2.567,3.674-.247a5.069,5.069,0,0,1-1.622,1.536,3.412,3.412,0,0,1-1.429.44A2.732,2.732,0,0,1,.827-25.137Zm-21.624.881,1.665-4.211.892,4.039Z" transform="translate(34.372 35.868)" fill="#fff"></path></svg>