<svg xmlns="http://www.w3.org/2000/svg" width="51.635" height="51.635" viewBox="0 0 51.635 51.635"><path d="M33.96,27.953l.706,1.508q-.844.395-1.707.744l-.623-1.545q.821-.332,1.624-.707Zm-9.741,2.792.2,1.654a33.845,33.845,0,0,0,6.831-1.561l-.537-1.577a32.08,32.08,0,0,1-6.494,1.483ZM52.635,8.5V36.812a4.169,4.169,0,0,1-4.164,4.164h-7.5v3.331H36.6l-.189-.1c-.687-.381-1.392-.826-2.072-1.256a25.627,25.627,0,0,0-3.5-1.966,2.5,2.5,0,0,1-1.024,1.268,2.466,2.466,0,0,1,.335,1.226,2.493,2.493,0,0,1-1.167,2.106,2.461,2.461,0,0,1-.833,3.331,2.471,2.471,0,0,1,.334,1.225,2.5,2.5,0,0,1-2.5,2.5H13.9a5.793,5.793,0,0,1-4.122-1.708l-.79-.79H7.663v2.5H1V34.313H7.663v2.5H9.051l.277-.208V5.164A4.169,4.169,0,0,1,13.492,1h7.781a4.138,4.138,0,0,1,2.945,1.22L26.33,4.331H48.471A4.169,4.169,0,0,1,52.635,8.5ZM10.994,5.164v2.5H50.816A2.5,2.5,0,0,0,48.471,6H25.64l-2.6-2.6a2.485,2.485,0,0,0-1.767-.732H13.492A2.5,2.5,0,0,0,10.994,5.164ZM6,35.979H2.666V50.97H6ZM26.818,50.137a.833.833,0,0,0-.833-.833H21.821V47.638h5a.833.833,0,1,0,0-1.666h-5V44.307h5.83a.833.833,0,1,0,0-1.666h-5.83V40.976h6.663a.833.833,0,1,0,0-1.666H20.155A5.832,5.832,0,0,1,14.9,35.979h-.57a4.183,4.183,0,0,0-2.5.833L9.606,38.477H7.663v9.994h2.01l1.278,1.278A4.138,4.138,0,0,0,13.9,50.97H25.985A.833.833,0,0,0,26.818,50.137Zm-5.83-12.492V29.291c-.227.006-.452.025-.68.025h-.153a4.164,4.164,0,1,0,0,8.328Zm14.237,3.893c.257.162.506.318.754.472V24.974a30.446,30.446,0,0,1-13.325,4.249v8.422h5.83a2.5,2.5,0,0,1,2.3,1.53,22.455,22.455,0,0,1,4.438,2.364ZM35.6,23.254c.249-.156.5-.3.75-.461l.21-.139h1.085v-8.01L47,19.322l-6.663,3.331h.636v3.331A6.669,6.669,0,1,0,35.6,23.254Zm7.678-3.932L39.31,17.338v3.968Zm-3.968,5H37.644V42.641H39.31ZM50.97,36.812V9.328H10.994V35.375a5.847,5.847,0,0,1,3.331-1.062h.067a5.786,5.786,0,0,1,5.763-6.663h.153A28.809,28.809,0,0,0,34.164,24.1a8.323,8.323,0,1,1,6.812,3.548V39.31h7.5A2.5,2.5,0,0,0,50.97,36.812ZM17.657,4.331H15.991V6h1.666Zm-3.331,0H12.66V6h1.666Zm6.663,0H19.322V6h1.666ZM42.641,37.644H49.3V35.979H42.641Zm0-3.331H49.3V32.647H42.641Zm0-3.331H49.3V29.316H42.641ZM12.66,10.994H30.982v9.994H12.66Zm1.666,8.328H29.316V12.66H14.325Zm-1.666,5h1.666V22.653H12.66Zm3.331,0H30.982V22.653H15.991Z" transform="translate(-1 -1)" fill="#8ea4af"></path></svg>