<svg xmlns="http://www.w3.org/2000/svg" width="45.581" height="45.581" viewBox="0 0 45.581 45.581"><path d="M5.881,36.759h1.47v1.47H5.881Zm-2.941,1.47h1.47v-1.47H2.941Zm5.881,0h1.47v-1.47H8.822ZM45.581,13.968V37.494A3.68,3.68,0,0,1,41.9,41.17H32.347V44.11h2.941v1.47h-25V44.11h2.941V41.17H3.676A3.68,3.68,0,0,1,0,37.494V13.968a3.68,3.68,0,0,1,3.676-3.676H5.881V30.877H39.7V13.233h1.47V32.347H4.411V11.763H3.676A2.208,2.208,0,0,0,1.47,13.968v19.85H11.936l2.941,1.47H44.11V13.968A2.208,2.208,0,0,0,41.9,11.763H39.7V7.352H5.881v1.47H4.411V0H41.17V10.292H41.9A3.68,3.68,0,0,1,45.581,13.968ZM39.7,5.881V1.47H5.881V5.881ZM30.877,41.17H14.7V44.11H30.877ZM44.11,37.494v-.735H14.53l-2.941-1.47H1.47v2.206A2.208,2.208,0,0,0,3.676,39.7H41.9A2.208,2.208,0,0,0,44.11,37.494ZM7.352,4.411h1.47V2.941H7.352Zm2.941,0h1.47V2.941h-1.47Zm2.941-1.47v1.47H14.7V2.941Zm-1.47,26.466V19.892a3.554,3.554,0,0,1-1.47-2.87v-.389a3.556,3.556,0,0,1,.183-1.127L12.7,8.822H32.877L35.1,15.505a3.536,3.536,0,0,1,.184,1.127v.389a3.552,3.552,0,0,1-1.47,2.87v9.516Zm12.5-5.881H21.32v4.411h2.941Zm8.087-3a3.464,3.464,0,0,1-3.557-1.5,3.558,3.558,0,0,1-6-.168,3.558,3.558,0,0,1-6,.168,3.464,3.464,0,0,1-3.557,1.5v7.415H19.85V22.055h5.881v5.881h6.617ZM28.118,10.292l1.28,5.881h.008v.035l.266,1.223a2.093,2.093,0,0,0,4.145-.41v-.389a2.078,2.078,0,0,0-.107-.662l-1.893-5.679Zm-1.506,0H23.525V16.1l.266,1.331a2.093,2.093,0,0,0,4.145-.41v-.768Zm-7.643,0-1.325,6.075v.654a2.093,2.093,0,0,0,4.145.411l.266-1.331V10.292Zm-7.206,6.729a2.093,2.093,0,0,0,4.145.411l.281-1.4,1.274-5.737h-3.7L11.87,15.971a2.078,2.078,0,0,0-.107.662Zm0,0" fill="#8ea4af"></path></svg>